<svg xmlns="http://www.w3.org/2000/svg" width="600" height="400" viewBox="0 0 600 400"><rect width="100%" height="100%" fill="#DDDDDD"/><path fill="#999999" d="M139.04 163.695h4.51v27.47h-2.63q-.6 0-1.01-.2t-.79-.67l-14.35-18.32q.12 1.25.12 2.32v16.87h-4.51v-27.47h2.68q.33 0 .56.02.24.03.42.12.18.08.35.25.17.16.38.42l14.41 18.39q-.06-.66-.1-1.31-.04-.64-.04-1.19zm18.51 7.67q2.16 0 3.94.71 1.78.7 3.04 1.99t1.95 3.15q.68 1.87.68 4.16 0 2.32-.68 4.19-.69 1.86-1.95 3.17t-3.04 2.01-3.94.7q-2.19 0-3.97-.7-1.79-.7-3.05-2.01-1.27-1.31-1.96-3.17-.69-1.87-.69-4.19 0-2.29.69-4.16.69-1.86 1.96-3.15 1.26-1.29 3.05-1.99 1.78-.71 3.97-.71m0 16.48q2.43 0 3.6-1.64 1.17-1.63 1.17-4.79 0-3.15-1.17-4.8-1.17-1.66-3.6-1.66-2.47 0-3.66 1.67-1.19 1.66-1.19 4.79 0 3.14 1.19 4.78 1.19 1.65 3.66 1.65m28.29-10.34h3.82q1.4 0 2.45-.35 1.04-.35 1.74-1.01.69-.65 1.03-1.6.35-.94.35-2.09 0-1.11-.35-2-.34-.89-1.02-1.52-.69-.63-1.73-.96-1.05-.33-2.47-.33h-3.82zm-5.11-13.81h8.93q2.75 0 4.77.64 2.01.65 3.32 1.81t1.95 2.77q.64 1.62.64 3.54 0 1.99-.67 3.65-.66 1.67-1.99 2.86-1.33 1.2-3.34 1.86-2 .67-4.68.67h-3.82v9.67h-5.11zm26.92 9.15.29 2.21q.91-1.75 2.16-2.75 1.26-1 2.97-1 1.35 0 2.16.59l-.3 3.52q-.1.34-.28.48-.18.15-.48.15-.29 0-.85-.1-.56-.09-1.09-.09-.78 0-1.39.22-.6.23-1.09.66-.48.43-.85 1.04-.37.6-.7 1.38v12.01h-4.69v-19.49h2.75q.73 0 1.01.25.29.26.38.92m13.74 6.33h8.85q0-.91-.25-1.72-.26-.81-.77-1.41-.52-.61-1.3-.96-.79-.35-1.84-.35-2.03 0-3.2 1.15-1.17 1.16-1.49 3.29m11.97 2.83h-12.07q.12 1.5.54 2.6.41 1.09 1.1 1.8.68.71 1.62 1.06.94.36 2.08.36t1.97-.27 1.44-.59q.62-.32 1.09-.59.46-.26.9-.26.59 0 .87.43l1.35 1.71q-.78.92-1.75 1.53-.97.62-2.02.99t-2.15.52q-1.09.15-2.12.15-2.03 0-3.78-.67-1.74-.67-3.04-1.99-1.29-1.33-2.03-3.27-.74-1.95-.74-4.51 0-2 .65-3.76.64-1.75 1.85-3.06 1.2-1.3 2.94-2.06t3.93-.76q1.84 0 3.4.59t2.68 1.72 1.75 2.77q.64 1.65.64 3.76 0 1.06-.23 1.43t-.87.37m18.49-10.33h3.7l-7.73 19.49h-4.26l-7.73-19.49h3.87q.54 0 .89.24.35.25.46.63l3.77 10.41q.3.91.53 1.79.23.87.4 1.75.19-.88.41-1.75.23-.88.56-1.79l3.83-10.41q.14-.38.48-.63.34-.24.82-.24m6.34 0h4.71v19.49h-4.71zm5.36-5.69q0 .61-.25 1.14-.24.54-.65.94t-.96.63q-.55.24-1.18.24-.61 0-1.15-.24-.54-.23-.94-.63t-.64-.94q-.23-.53-.23-1.14 0-.62.23-1.17.24-.55.64-.95t.94-.64 1.15-.24q.63 0 1.18.24t.96.64.65.95q.25.55.25 1.17m7.85 13.19h8.85q0-.91-.26-1.72-.25-.81-.77-1.41-.51-.61-1.3-.96t-1.83-.35q-2.03 0-3.2 1.15-1.17 1.16-1.49 3.29m11.97 2.83H271.3q.12 1.5.53 2.6.42 1.09 1.11 1.8.68.71 1.62 1.06.94.36 2.08.36t1.97-.27q.82-.27 1.44-.59t1.08-.59q.47-.26.91-.26.59 0 .87.43l1.35 1.71q-.78.92-1.75 1.53-.97.62-2.02.99-1.06.37-2.15.52t-2.12.15q-2.03 0-3.78-.67t-3.04-1.99q-1.29-1.33-2.03-3.27-.74-1.95-.74-4.51 0-2 .64-3.76.65-1.75 1.86-3.06 1.2-1.3 2.94-2.06t3.92-.76q1.85 0 3.41.59 1.55.59 2.67 1.72 1.13 1.13 1.76 2.77.64 1.65.64 3.76 0 1.06-.23 1.43t-.87.37m28.88-10.33h3.57l-6.2 19.49h-3.76q-.64 0-.89-.84l-3.5-11.26q-.17-.57-.31-1.13t-.24-1.13q-.11.57-.25 1.15-.15.58-.32 1.15l-3.55 11.22q-.23.84-1.01.84h-3.61l-6.17-19.49h3.74q.51 0 .87.24.37.25.48.63l2.79 10.41q.21.86.37 1.67.16.82.28 1.64.21-.82.45-1.64.23-.81.5-1.67l3.23-10.45q.11-.38.45-.63.33-.24.8-.24h2.07q.5 0 .85.24.35.25.46.63l3.14 10.45q.25.86.47 1.68.21.83.42 1.65.25-1.62.71-3.33l2.86-10.41q.14-.38.48-.63.34-.24.82-.24m21.98 9.12h8.74l-3.34-9.14q-.25-.61-.52-1.45-.26-.83-.53-1.8-.25.97-.51 1.81-.27.85-.52 1.48zm6.97-17.1 10.79 27.47h-3.95q-.66 0-1.08-.33-.42-.34-.63-.83l-2.05-5.6H332.9l-2.05 5.6q-.15.44-.59.8t-1.08.36h-3.99l10.81-27.47zm26.77 7.98h3.71l-7.73 19.49h-4.26l-7.73-19.49h3.87q.53 0 .89.24.35.25.46.63l3.76 10.41q.31.91.54 1.79.22.87.39 1.75.19-.88.42-1.75.23-.88.55-1.79l3.84-10.41q.13-.38.48-.63.34-.24.81-.24m16.5 14.45v-3.28q-2.04.09-3.42.35-1.39.26-2.23.66-.83.39-1.19.93-.37.53-.37 1.16 0 1.23.74 1.76.73.53 1.91.53 1.44 0 2.49-.52 1.06-.52 2.07-1.59m-9.92-10.24-.84-1.5q3.36-3.08 8.1-3.08 1.71 0 3.05.57 1.35.56 2.28 1.55.94 1 1.42 2.39t.48 3.04v12.31h-2.12q-.67 0-1.03-.2t-.57-.81l-.42-1.4q-.74.66-1.44 1.17-.7.5-1.46.84t-1.63.52q-.86.18-1.91.18-1.23 0-2.28-.33-1.04-.33-1.8-1-.76-.66-1.18-1.65t-.42-2.3q0-.74.25-1.47.24-.73.81-1.4.56-.66 1.45-1.25t2.19-1.03q1.3-.43 3.03-.71t3.96-.33v-1.14q0-1.96-.84-2.9t-2.41-.94q-1.14 0-1.89.27-.75.26-1.32.59-.57.34-1.04.6-.47.27-1.04.27-.49 0-.83-.26-.34-.25-.55-.6m19.05-4.21h4.72v19.49h-4.72zm5.36-5.69q0 .61-.24 1.14-.25.54-.66.94t-.96.63q-.55.24-1.18.24-.61 0-1.15-.24-.54-.23-.94-.63t-.63-.94q-.24-.53-.24-1.14 0-.62.24-1.17.23-.55.63-.95t.94-.64 1.15-.24q.63 0 1.18.24t.96.64.66.95q.24.55.24 1.17m4.2-3.05h4.69v28.23h-4.69zm19.69 23.19v-3.28q-2.04.09-3.42.35-1.39.26-2.23.66-.83.39-1.19.93-.37.53-.37 1.16 0 1.23.74 1.76.73.53 1.91.53 1.44 0 2.49-.52 1.06-.52 2.07-1.59m-9.92-10.24-.84-1.5q3.36-3.08 8.1-3.08 1.71 0 3.05.57 1.35.56 2.28 1.55.94 1 1.42 2.39t.48 3.04v12.31h-2.12q-.67 0-1.03-.2t-.57-.81l-.42-1.4q-.74.66-1.44 1.17-.7.5-1.46.84t-1.63.52q-.86.18-1.91.18-1.23 0-2.28-.33-1.04-.33-1.8-1-.76-.66-1.18-1.65t-.42-2.3q0-.74.25-1.47.24-.73.81-1.4.56-.66 1.45-1.25t2.19-1.03q1.3-.43 3.03-.71t3.96-.33v-1.14q0-1.96-.84-2.9t-2.41-.94q-1.14 0-1.89.27-.75.26-1.32.59-.57.34-1.04.6-.47.27-1.04.27-.49 0-.83-.26-.34-.25-.55-.6m23.6 1.49v8.74q.79.97 1.73 1.36.94.4 1.99.4 1.08 0 1.95-.39.86-.39 1.47-1.21.61-.83.93-2.11t.32-3.07q0-3.21-1.06-4.65-1.06-1.43-3.06-1.43-1.35 0-2.36.62-1 .62-1.91 1.74m0-14.44v11.13q1.17-1.24 2.61-1.97 1.43-.73 3.28-.73 1.69 0 3.05.67 1.35.66 2.31 1.91.96 1.24 1.48 3.01.51 1.76.51 3.97 0 2.37-.59 4.31t-1.68 3.32-2.63 2.14q-1.54.75-3.42.75-.92 0-1.66-.18t-1.36-.5q-.63-.32-1.15-.79-.53-.46-1-1.03l-.21 1.31q-.11.49-.39.7t-.75.21h-3.1v-28.23zm16.92 0h4.7v28.23h-4.7zm13.1 16.24h8.85q0-.91-.26-1.72-.25-.81-.77-1.41-.51-.61-1.3-.96t-1.83-.35q-2.03 0-3.2 1.15-1.17 1.16-1.49 3.29m11.97 2.83h-12.07q.11 1.5.53 2.6.42 1.09 1.1 1.8.69.71 1.63 1.06.94.36 2.08.36t1.97-.27q.82-.27 1.44-.59t1.08-.59q.47-.26.91-.26.58 0 .87.43l1.35 1.71q-.78.92-1.75 1.53-.97.62-2.02.99-1.06.37-2.15.52t-2.12.15q-2.03 0-3.78-.67t-3.04-1.99q-1.29-1.33-2.03-3.27-.74-1.95-.74-4.51 0-2 .64-3.76.65-1.75 1.86-3.06 1.2-1.3 2.94-2.06t3.92-.76q1.85 0 3.4.59 1.56.59 2.68 1.72t1.76 2.77q.64 1.65.64 3.76 0 1.06-.23 1.43t-.87.37m-239.84 31.35h-12.2v7.62h9.61v3.93h-9.61v7.78h12.2v4.08h-17.33v-27.47h17.33zm7.92 5.09.29 2.21q.91-1.75 2.16-2.75 1.26-.99 2.97-.99 1.35 0 2.16.58l-.3 3.52q-.1.34-.28.48-.18.15-.48.15-.29 0-.85-.1-.56-.09-1.09-.09-.78 0-1.39.22-.6.23-1.09.66-.48.43-.85 1.03-.37.61-.7 1.39v12.01h-4.69v-19.49h2.75q.73 0 1.01.25.29.26.38.92m14.18 0 .28 2.21q.91-1.75 2.17-2.75 1.25-.99 2.96-.99 1.35 0 2.17.58l-.31 3.52q-.09.34-.27.48-.18.15-.49.15-.28 0-.84-.1-.56-.09-1.1-.09-.77 0-1.38.22-.61.23-1.1.66-.48.43-.85 1.03-.37.61-.69 1.39v12.01h-4.7v-19.49h2.76q.72 0 1.01.25.28.26.38.92m18.65-1.48q2.17 0 3.95.71 1.77.7 3.04 1.99 1.26 1.29 1.94 3.15.69 1.87.69 4.16 0 2.32-.69 4.19-.68 1.86-1.94 3.17-1.27 1.31-3.04 2.01-1.78.7-3.95.7-2.18 0-3.97-.7-1.78-.7-3.05-2.01-1.26-1.31-1.95-3.17-.7-1.87-.7-4.19 0-2.29.7-4.16.69-1.86 1.95-3.15 1.27-1.29 3.05-1.99 1.79-.71 3.97-.71m0 16.47q2.44 0 3.6-1.63 1.17-1.63 1.17-4.79 0-3.15-1.17-4.8-1.16-1.66-3.6-1.66-2.47 0-3.65 1.67-1.19 1.66-1.19 4.79 0 3.14 1.19 4.78 1.18 1.64 3.65 1.64m17.35-14.99.29 2.21q.91-1.75 2.16-2.75 1.26-.99 2.97-.99 1.34 0 2.16.58l-.3 3.52q-.1.34-.28.48-.18.15-.48.15-.29 0-.85-.1-.56-.09-1.09-.09-.78 0-1.39.22-.61.23-1.09.66t-.86 1.03q-.37.61-.69 1.39v12.01h-4.69v-19.49h2.75q.73 0 1.01.25.29.26.38.92m22.12 7.97h8.36v-8.99q0-1.27.17-2.81zm12.44 0h3.46v2.71q0 .38-.25.66-.24.27-.7.27h-2.51v6.71h-4.08v-6.71h-11.59q-.48 0-.84-.29-.36-.3-.46-.73l-.49-2.38 13.02-17.38h4.44zm25.52-3.39q0 3.59-.77 6.24-.77 2.66-2.13 4.38-1.36 1.73-3.21 2.58-1.85.84-4 .84t-3.98-.84q-1.83-.85-3.18-2.58-1.35-1.72-2.11-4.38-.76-2.65-.76-6.24 0-3.61.76-6.25t2.11-4.37 3.18-2.57q1.83-.85 3.98-.85t4 .85q1.85.84 3.21 2.57t2.13 4.37.77 6.25m-4.85 0q0-2.98-.43-4.94-.44-1.95-1.17-3.11t-1.68-1.63q-.95-.46-1.98-.46-1.01 0-1.95.46-.94.47-1.66 1.63t-1.15 3.11q-.43 1.96-.43 4.94 0 2.99.43 4.94.43 1.96 1.15 3.12t1.66 1.62q.94.47 1.95.47 1.03 0 1.98-.47.95-.46 1.68-1.62t1.17-3.12q.43-1.95.43-4.94m10.97 3.39h8.36v-8.99q0-1.27.17-2.81zm12.44 0h3.46v2.71q0 .38-.25.66-.24.27-.7.27h-2.51v6.71h-4.08v-6.71h-11.59q-.48 0-.84-.29-.36-.3-.46-.73l-.49-2.38 13.02-17.38h4.44z"/></svg>